<?xml version="1.0" encoding="utf-8"?>
<!-- Generator: Adobe Illustrator 23.1.1, SVG Export Plug-In . SVG Version: 6.00 Build 0)  -->
<svg version="1.1" id="Livello_1" xmlns="http://www.w3.org/2000/svg" xmlns:xlink="http://www.w3.org/1999/xlink" x="0px" y="0px"
	 viewBox="0 0 110 123.9" style="enable-background:new 0 0 110 123.9;" xml:space="preserve">
<style type="text/css">
	.st0{fill:#F9C401;}
	.st1{fill:#FFFFFF;}
	.st2{font-family:'BebasNeueBold';}
	.st3{font-size:29px;}
</style>
<g id="Raggruppa_1823" transform="translate(54)">
	<g id="Raggruppa_1821" transform="translate(1.268 14.209)">
		<path id="Rettangolo_90" class="st0" d="M0.4,3.1L0.4,3.1c28.6,0,51.8,23.2,51.8,51.8v0c0,28.6-23.2,51.8-51.8,51.8l0,0
			c-28.6,0-51.8-23.2-51.8-51.8v0C-51.4,26.3-28.2,3.1,0.4,3.1z"/>
	</g>
	<g transform="matrix(1, 0, 0, 1, -54, 0)">
		<g id="Tracciato_549-2" transform="translate(54)">
			<path class="st1" d="M-28.6,47.7c-2.9,0-5.8-0.6-8.5-1.7c-2.6-1.1-4.9-2.7-6.9-4.7c-2-2-3.6-4.3-4.7-6.9
				c-1.1-2.7-1.7-5.5-1.7-8.5s0.6-5.8,1.7-8.5c1.1-2.6,2.7-4.9,4.7-6.9c2-2,4.3-3.6,6.9-4.7c2.7-1.1,5.5-1.7,8.5-1.7
				s5.8,0.6,8.5,1.7c2.6,1.1,4.9,2.7,6.9,4.7c2,2,3.6,4.3,4.7,6.9c1.1,2.7,1.7,5.5,1.7,8.5s-0.6,5.8-1.7,8.5
				c-1.1,2.6-2.7,4.9-4.7,6.9c-2,2-4.3,3.6-6.9,4.7C-22.8,47.1-25.7,47.7-28.6,47.7z"/>
			<path class="st0" d="M-28.6,5.1c-2.8,0-5.5,0.5-8.1,1.6c-2.5,1-4.7,2.5-6.6,4.5s-3.4,4.1-4.5,6.6c-1.1,2.6-1.6,5.3-1.6,8.1
				s0.5,5.5,1.6,8.1c1,2.5,2.5,4.7,4.5,6.6s4.1,3.4,6.6,4.5c2.6,1.1,5.3,1.6,8.1,1.6s5.5-0.5,8.1-1.6c2.5-1,4.7-2.5,6.6-4.5
				s3.4-4.1,4.5-6.6c1.1-2.6,1.6-5.3,1.6-8.1s-0.5-5.5-1.6-8.1c-1-2.5-2.5-4.7-4.5-6.6s-4.1-3.4-6.6-4.5
				C-23.1,5.7-25.8,5.1-28.6,5.1 M-28.6,3.1c12.6,0,22.8,10.2,22.8,22.8s-10.2,22.8-22.8,22.8s-22.8-10.2-22.8-22.8
				S-41.2,3.1-28.6,3.1z"/>
		</g>
	</g>
</g>
<path id="Tracciato_86" class="st1" d="M57.5,79.9c-5,0-9-4-9-9c0-3.9,2.6-7.4,6.3-8.6v3.3c-2.9,1.5-4,5-2.6,7.9
	c1.5,2.9,5,4,7.9,2.6c2.9-1.5,4-5,2.6-7.9c-0.6-1.1-1.5-2-2.6-2.6v-3.3c4.7,1.5,7.4,6.5,5.9,11.2C64.9,77.4,61.4,79.9,57.5,79.9
	L57.5,79.9z M56.2,60.6c0-0.7,0.6-1.2,1.4-1.2c0.7,0,1.2,0.6,1.2,1.2v5.9c0,0.7-0.7,1.2-1.4,1.2c-0.6,0-1.2-0.6-1.2-1.2V60.6z
	 M57.5,53.8c-9.5,0-17.3,7.7-17.3,17.3c0,9.5,7.7,17.3,17.3,17.3c9.5,0,17.3-7.7,17.3-17.3c0,0,0,0,0,0C74.7,61.5,67,53.8,57.5,53.8
	L57.5,53.8z"/>
<path id="Tracciato_87" class="st1" d="M37.6,70.9c0-0.7-0.6-1.4-1.3-1.4h-7.6c-0.8,0-1.4,0.7-1.3,1.5c0,0.7,0.6,1.3,1.3,1.3h7.6
	C37.1,72.3,37.6,71.7,37.6,70.9z"/>
<path id="Tracciato_88" class="st1" d="M87.5,70.9c0-0.7-0.6-1.4-1.3-1.4h-7.6c-0.8,0-1.4,0.7-1.3,1.5c0,0.7,0.6,1.3,1.3,1.3h7.6
	C86.9,72.3,87.5,71.7,87.5,70.9z"/>
<path id="Tracciato_89" class="st1" d="M57.5,51.1c0.7,0,1.4-0.6,1.4-1.3v-7.6c0-0.8-0.7-1.4-1.5-1.3c-0.7,0-1.3,0.6-1.3,1.3v7.6
	C56.1,50.5,56.7,51.1,57.5,51.1z"/>
<path id="Tracciato_90" class="st1" d="M57.5,101c0.7,0,1.4-0.6,1.4-1.3v-7.6c0-0.8-0.7-1.4-1.5-1.3c-0.7,0-1.3,0.6-1.3,1.3v7.6
	C56.1,100.4,56.7,101,57.5,101z"/>
<path id="Tracciato_91" class="st1" d="M40.3,61.1c0.4-0.7,0.2-1.5-0.4-1.9l-6.6-3.8c-0.7-0.3-1.6-0.1-1.9,0.6
	c-0.3,0.6-0.1,1.4,0.5,1.8l6.6,3.8C39.1,62,39.9,61.7,40.3,61.1z"/>
<path id="Tracciato_92" class="st1" d="M83.5,85.8c0.4-0.7,0.2-1.5-0.4-1.9l-6.6-3.8c-0.7-0.3-1.6,0-1.9,0.7
	c-0.3,0.6-0.1,1.4,0.5,1.8l6.6,3.8C82.4,86.7,83.2,86.5,83.5,85.8z"/>
<path id="Tracciato_93" class="st1" d="M67.3,53.7c0.7,0.4,1.5,0.2,1.9-0.4l3.8-6.6c0.4-0.7,0.1-1.6-0.6-1.9
	c-0.6-0.3-1.4-0.1-1.8,0.5l-3.8,6.6C66.4,52.5,66.7,53.3,67.3,53.7z"/>
<path id="Tracciato_94" class="st1" d="M42.5,97c0.7,0.4,1.5,0.2,1.9-0.4l3.8-6.6c0.4-0.7,0.1-1.6-0.6-1.9c-0.6-0.3-1.4-0.1-1.8,0.5
	L42,95.1C41.6,95.8,41.9,96.6,42.5,97z"/>
<path id="Tracciato_95" class="st1" d="M47.6,53.7c0.6-0.4,0.9-1.2,0.6-1.9l-3.8-6.6c-0.4-0.7-1.3-0.8-2-0.4
	c-0.6,0.4-0.8,1.2-0.5,1.8l3.8,6.6C46.1,53.9,46.9,54.1,47.6,53.7z"/>
<path id="Tracciato_96" class="st1" d="M72.4,97c0.6-0.4,0.9-1.2,0.6-1.9l-3.8-6.6c-0.4-0.7-1.3-0.8-2-0.4c-0.6,0.4-0.8,1.2-0.5,1.8
	l3.8,6.6C71,97.1,71.8,97.3,72.4,97z"/>
<path id="Tracciato_97" class="st1" d="M74.6,61c0.4,0.6,1.2,0.9,1.9,0.6l6.6-3.8c0.7-0.4,0.8-1.3,0.4-2c-0.4-0.6-1.2-0.8-1.8-0.5
	l-6.6,3.8C74.5,59.6,74.3,60.4,74.6,61z"/>
<path id="Tracciato_98" class="st1" d="M31.4,85.9c0.4,0.6,1.2,0.9,1.9,0.6l6.6-3.8c0.7-0.4,0.8-1.3,0.4-2c-0.4-0.6-1.2-0.8-1.8-0.5
	L31.9,84C31.2,84.4,31.1,85.3,31.4,85.9z"/>
<text transform="matrix(1 0 0 1 18.5495 35.294)" class="st0 st2 st3">7</text>
</svg>
