<?xml version="1.0" encoding="utf-8"?>
<!-- Generator: Adobe Illustrator 23.1.1, SVG Export Plug-In . SVG Version: 6.00 Build 0)  -->
<svg version="1.1" id="Livello_1" xmlns="http://www.w3.org/2000/svg" xmlns:xlink="http://www.w3.org/1999/xlink" x="0px" y="0px"
	 viewBox="0 0 110 123.9" style="enable-background:new 0 0 110 123.9;" xml:space="preserve">
<style type="text/css">
	.st0{fill:#39BBE4;}
	.st1{fill:#FFFFFF;}
	.st2{font-family:'BebasNeueBold';}
	.st3{font-size:29px;}
</style>
<g id="Raggruppa_1986" transform="translate(-1539.253 -94)">
	<path id="Tracciato_559" class="st0" d="M1594.8,111c28.7,0,52,23.3,52,52v0c0,28.7-23.3,52-52,51.9c-28.7,0-51.9-23.3-51.9-51.9v0
		C1542.9,134.2,1566.1,111,1594.8,111z"/>
	<g id="Raggruppa_1823" transform="translate(1593.253 125)">
		<g transform="matrix(1, 0, 0, 1, -54, -31)">
			<g id="Tracciato_549-2" transform="translate(54 31)">
				<path class="st1" d="M-28.8,16.7c-2.9,0-5.8-0.6-8.5-1.7c-2.6-1.1-4.9-2.7-6.9-4.7c-2-2-3.6-4.3-4.7-6.9
					c-1.1-2.7-1.7-5.5-1.7-8.5s0.6-5.8,1.7-8.5c1.1-2.6,2.7-4.9,4.7-6.9c2-2,4.3-3.6,6.9-4.7c2.7-1.1,5.5-1.7,8.5-1.7
					s5.8,0.6,8.5,1.7c2.6,1.1,4.9,2.7,6.9,4.7c2,2,3.6,4.3,4.7,6.9C-7.6-10.9-7-8-7-5.1s-0.6,5.8-1.7,8.5c-1.1,2.6-2.7,4.9-4.7,6.9
					c-2,2-4.3,3.6-6.9,4.7C-23,16.1-25.8,16.7-28.8,16.7z"/>
				<path class="st0" d="M-28.8-25.9c-2.8,0-5.5,0.5-8.1,1.6c-2.5,1-4.7,2.5-6.6,4.5s-3.4,4.1-4.5,6.6c-1.1,2.6-1.6,5.3-1.6,8.1
					S-49,0.4-47.9,3c1,2.5,2.5,4.7,4.5,6.6s4.1,3.4,6.6,4.5c2.6,1.1,5.3,1.6,8.1,1.6s5.5-0.5,8.1-1.6c2.5-1,4.7-2.5,6.6-4.5
					s3.4-4.1,4.5-6.6C-8.5,0.4-8-2.3-8-5.1s-0.5-5.5-1.6-8.1c-1-2.5-2.5-4.7-4.5-6.6s-4.1-3.4-6.6-4.5
					C-23.2-25.3-25.9-25.9-28.8-25.9 M-28.8-27.9C-16.2-27.9-6-17.7-6-5.1s-10.2,22.8-22.8,22.8S-51.5,7.5-51.5-5.1
					S-41.3-27.9-28.8-27.9z"/>
			</g>
		</g>
	</g>
	<path id="Tracciato_399" class="st1" d="M1610.7,147.7c-1.1-0.4-2.3-0.3-3.4,0.2c-4.5,1.8-7.5,2.5-12.2,1c-3-0.9-5.7-2.9-9-1.7
		c-2.1,0.9-4.4,1.4-6.7,1.5l-1.4-7.3h33.8L1610.7,147.7z M1599.2,169.3c-2.5,2-6.1,2-8.6,0c-2.7-2.7-1.7-6.1-0.8-7.8
		c0.6-1.1,4.7-7.3,5.1-7.9v0c0,0,0,0,0,0l0,0v0c0.4,0.5,4.5,6.8,5.1,7.9C1601,163.2,1601.9,166.6,1599.2,169.3L1599.2,169.3z
		 M1613.2,139.9c-0.1-0.1-0.2-0.1-0.3-0.1h-36.1c-0.2,0-0.4,0.2-0.4,0.4c0,0,0,0.1,0,0.1l6.1,36.7c0,0.2,0.2,0.4,0.4,0.4h7.5l0.5,6
		h-3.1l7.3,7.3l7.3-7.3h-3.1l0.5-6h7.6c0.2,0,0.4-0.2,0.4-0.4l5.7-36.7C1613.3,140.2,1613.3,140,1613.2,139.9L1613.2,139.9z"/>
	<text transform="matrix(1 0 0 1 1557.9091 129.2956)" class="st0 st2 st3">6</text>
</g>
</svg>
