<?xml version="1.0" encoding="utf-8"?>
<!-- Generator: Adobe Illustrator 23.1.1, SVG Export Plug-In . SVG Version: 6.00 Build 0)  -->
<svg version="1.1" id="Livello_1" xmlns="http://www.w3.org/2000/svg" xmlns:xlink="http://www.w3.org/1999/xlink" x="0px" y="0px"
	 viewBox="0 0 110 123.9" style="enable-background:new 0 0 110 123.9;" xml:space="preserve">
<style type="text/css">
	.st0{fill:#C38D13;}
	.st1{fill:#FFFFFF;}
	.st2{font-family:'BebasNeueBold';}
	.st3{font-size:30px;}
</style>
<g id="Raggruppa_1991" transform="translate(-1537 -355.174)">
	<g id="Raggruppa_1823" transform="translate(1591 355.174)">
		<g id="Raggruppa_1821" transform="translate(1.268 14.209)">
			<path id="Rettangolo_90" class="st0" d="M0.4,3.1L0.4,3.1c28.6,0,51.8,23.2,51.8,51.8v0c0,28.6-23.2,51.8-51.8,51.8l0,0
				c-28.6,0-51.8-23.2-51.8-51.8v0C-51.4,26.3-28.2,3.1,0.4,3.1z"/>
		</g>
		<g transform="matrix(1, 0, 0, 1, -54, 0)">
			<g id="Tracciato_549-2" transform="translate(54)">
				<path class="st1" d="M-28.6,47.6c-2.9,0-5.8-0.6-8.5-1.7c-2.6-1.1-4.9-2.7-6.9-4.7c-2-2-3.6-4.3-4.7-6.9
					c-1.1-2.7-1.7-5.5-1.7-8.5s0.6-5.8,1.7-8.5c1.1-2.6,2.7-4.9,4.7-6.9c2-2,4.3-3.6,6.9-4.7c2.7-1.1,5.5-1.7,8.5-1.7
					s5.8,0.6,8.5,1.7c2.6,1.1,4.9,2.7,6.9,4.7c2,2,3.6,4.3,4.7,6.9c1.1,2.7,1.7,5.5,1.7,8.5s-0.6,5.8-1.7,8.5
					c-1.1,2.6-2.7,4.9-4.7,6.9c-2,2-4.3,3.6-6.9,4.7C-22.8,47-25.7,47.6-28.6,47.6z"/>
				<path class="st0" d="M-28.6,5.1c-2.8,0-5.5,0.5-8.1,1.6c-2.5,1-4.7,2.5-6.6,4.5s-3.4,4.1-4.5,6.6c-1.1,2.6-1.6,5.3-1.6,8.1
					s0.5,5.5,1.6,8.1c1,2.5,2.5,4.7,4.5,6.6s4.1,3.4,6.6,4.5c2.6,1.1,5.3,1.6,8.1,1.6s5.5-0.5,8.1-1.6c2.5-1,4.7-2.5,6.6-4.5
					s3.4-4.1,4.5-6.6c1.1-2.6,1.6-5.3,1.6-8.1s-0.5-5.5-1.6-8.1c-1-2.5-2.5-4.7-4.5-6.6s-4.1-3.4-6.6-4.5
					C-23.1,5.6-25.8,5.1-28.6,5.1 M-28.6,3.1c12.6,0,22.8,10.2,22.8,22.8s-10.2,22.8-22.8,22.8s-22.8-10.2-22.8-22.8
					S-41.2,3.1-28.6,3.1z"/>
			</g>
		</g>
	</g>
	<text transform="matrix(1 0 0 1 1548.9146 390.279)" class="st0 st2 st3">12</text>
	<path id="Tracciato_611" class="st1" d="M1622.3,411.8c-4.1-3.1-9.2-4.3-14.3-3.5l-0.3,0.1c-2.8,0.7-7.4,1.8-12.7,8.4
		c0,0-0.1,0.1-0.1,0.1l-0.1,0.1c-0.1,0.1-0.1,0.2-0.1,0.3c0,0.1,0,0.2,0.1,0.2l0.1,0.2c0.7,1.1,1.5,2.5,2.2,3.9c0,0,0,0,0,0
		c0.1,0.2,0.2,0.2,0.4,0.2c0.1,0,0.2,0,0.3-0.1c0,0,0.1-0.1,0.1-0.1c4.7-6.5,8.4-7.4,10.9-8l0.3-0.1c3.5-0.4,7,0.5,9.8,2.5
		c2.8,2.2,4.2,5.7,4.2,10.4c0,7.9-3.8,11-7,12.1c-3.2,1.1-6.7,0.8-9.8-0.6l-0.2-0.1c-2.7-1.2-6.8-3.7-10.7-11.4
		c-7.8-15.6-14.2-17-18.5-18l-0.2-0.1c-5-0.8-10.1,0.5-14.1,3.5c-2.8,2.2-6.1,6.5-6.1,14.5c0,4.9,1,8.1,3.6,11.4
		c0.6,0.8,6.3,8.1,17.4,6c2.5-0.5,4.8-1.6,6.8-3.2l2.4,2.2c0.2,0.1,0.4,0.1,0.5,0c0.1-0.1,0.1-0.2,0.1-0.3v0l1.8-10.8l0-0.1
		c0-0.1-0.1-0.2-0.1-0.3c-0.1-0.1-0.2-0.1-0.3-0.1l-0.1,0l-0.1,0l-10.4,2.9l-0.2,0c-0.1,0-0.1,0.1-0.2,0.1c-0.1,0.2-0.1,0.4,0,0.6
		c0,0,0,0,0,0l0.1,0.1l2.3,2.1c-1.2,0.8-2.5,1.3-3.8,1.6c-8,1.5-12-3.7-12.1-3.9l0-0.1c-1.9-2.4-2.5-4.5-2.5-8.2
		c0-4.7,1.4-8.2,4.1-10.4c2.8-2,6.2-2.9,9.6-2.5l0.2,0.1c3.5,0.8,8.3,1.9,15,15.2c3.5,6.9,7.8,11.4,13.2,13.8
		c2.6,1.2,5.4,1.9,8.3,1.9c2,0,3.9-0.3,5.8-1c3.1-1.2,10.5-5.2,10.5-17.1C1628.5,418.4,1625.1,414,1622.3,411.8z"/>
</g>
</svg>
