<?xml version="1.0" encoding="utf-8"?>
<!-- Generator: Adobe Illustrator 23.1.1, SVG Export Plug-In . SVG Version: 6.00 Build 0)  -->
<svg version="1.1" id="Livello_1" xmlns="http://www.w3.org/2000/svg" xmlns:xlink="http://www.w3.org/1999/xlink" x="0px" y="0px"
	 viewBox="0 0 110 123.9" style="enable-background:new 0 0 110 123.9;" xml:space="preserve">
<style type="text/css">
	.st0{fill:#5FB12F;}
	.st1{fill:#FFFFFF;}
	.st2{font-family:'BebasNeueBold';}
	.st3{font-size:30px;}
</style>
<g id="Raggruppa_1994" transform="translate(-662.768 -582.012)">
	<g id="Raggruppa_1823" transform="translate(716.768 582.012)">
		<g id="Raggruppa_1821" transform="translate(1.268 14.209)">
			<path id="Rettangolo_90" class="st0" d="M0.4,3.1L0.4,3.1c28.6,0,51.8,23.2,51.8,51.8v0c0,28.6-23.2,51.8-51.8,51.8l0,0
				c-28.6,0-51.8-23.2-51.8-51.8v0C-51.4,26.3-28.2,3.1,0.4,3.1z"/>
		</g>
		<g transform="matrix(1, 0, 0, 1, -54, 0)">
			<g id="Tracciato_549-2" transform="translate(54)">
				<path class="st1" d="M-28.6,47.6c-2.9,0-5.8-0.6-8.5-1.7c-2.6-1.1-4.9-2.7-6.9-4.7c-2-2-3.6-4.3-4.7-6.9
					c-1.1-2.7-1.7-5.5-1.7-8.5s0.6-5.8,1.7-8.5c1.1-2.6,2.7-4.9,4.7-6.9c2-2,4.3-3.6,6.9-4.7c2.7-1.1,5.5-1.7,8.5-1.7
					s5.8,0.6,8.5,1.7c2.6,1.1,4.9,2.7,6.9,4.7c2,2,3.6,4.3,4.7,6.9c1.1,2.7,1.7,5.5,1.7,8.5s-0.6,5.8-1.7,8.5
					c-1.1,2.6-2.7,4.9-4.7,6.9c-2,2-4.3,3.6-6.9,4.7C-22.8,47-25.7,47.6-28.6,47.6z"/>
				<path class="st0" d="M-28.6,5.1c-2.8,0-5.5,0.5-8.1,1.6c-2.5,1-4.7,2.5-6.6,4.5s-3.4,4.1-4.5,6.6c-1.1,2.6-1.6,5.3-1.6,8.1
					s0.5,5.5,1.6,8.1c1,2.5,2.5,4.7,4.5,6.6s4.1,3.4,6.6,4.5c2.6,1.1,5.3,1.6,8.1,1.6s5.5-0.5,8.1-1.6c2.5-1,4.7-2.5,6.6-4.5
					s3.4-4.1,4.5-6.6c1.1-2.6,1.6-5.3,1.6-8.1s-0.5-5.5-1.6-8.1c-1-2.5-2.5-4.7-4.5-6.6s-4.1-3.4-6.6-4.5
					C-23.1,5.6-25.8,5.1-28.6,5.1 M-28.6,3.1c12.6,0,22.8,10.2,22.8,22.8s-10.2,22.8-22.8,22.8s-22.8-10.2-22.8-22.8
					S-41.2,3.1-28.6,3.1z"/>
			</g>
		</g>
	</g>
	<text transform="matrix(1 0 0 1 674.4795 617.116)" class="st0 st2 st3">15</text>
	<g id="Raggruppa_1853" transform="translate(740.697 618.308)">
		<path id="Tracciato_482" class="st1" d="M-31.5,36.9c0.1,0,0.3,0.1,0.3,0.3c0,0,0,0,0,0V46c0,0.1-0.1,0.3-0.3,0.3c0,0,0,0,0,0H-35
			c-0.1,0-0.3-0.1-0.3-0.3c0,0,0,0,0,0v-8.8c0-0.1,0.1-0.3,0.3-0.3c0,0,0,0,0,0L-31.5,36.9z"/>
		<g id="Raggruppa_1851">
			<path id="Tracciato_483" class="st1" d="M7.8,50.1h-59c-0.2,0-0.3,0.1-0.3,0.3V54c0,0.1,0.1,0.3,0.3,0.3h59
				c0.1,0,0.3-0.1,0.3-0.3v-3.6C8.1,50.2,8,50.1,7.8,50.1z"/>
			<path id="Tracciato_484" class="st1" d="M7.8,57.3h-59c-0.1,0-0.3,0.1-0.3,0.3v3.6c0,0.1,0.1,0.3,0.3,0.3h59
				c0.1,0,0.3-0.1,0.3-0.3v-3.6C8.1,57.4,8,57.3,7.8,57.3z"/>
			<path id="Tracciato_485" class="st1" d="M-3.4,27.1c-1.5-1.2-3.2-1.8-5.1-1.9c-1.8,0-3.5,0.7-4.7,2c-0.1,0.1-0.2,0.2-0.2,0.4v0.3
				c0,0.2,0.1,0.3,0.2,0.4c0.1,0.1,0.3,0.1,0.4,0.1c0,0,0.1,0,0.1,0c0.1,0,0.2-0.1,0.3-0.2c0.7-0.4,1.5-0.5,2.4-0.5
				c2.3,0,4.5,1,6.1,2.5l0.1,0c0.1,0.1,0.3,0.2,0.5,0.2c0.2,0,0.4-0.1,0.5-0.2l0,0c1.6-1.6,3.8-2.5,6.1-2.6c0.8,0,1.6,0.1,2.4,0.5
				c0.1,0.1,0.2,0.2,0.3,0.2c0.1,0,0.2,0,0.3,0c0.2-0.1,0.4-0.3,0.4-0.5v-0.3c0-0.1-0.1-0.3-0.2-0.4c-1.3-1.3-3-2-4.8-2.1
				C-0.1,25.3-1.9,26-3.4,27.1z"/>
			<path id="Tracciato_486" class="st1" d="M-7,3.6c-0.1,0.1-0.2,0.2-0.3,0.3l-0.1,0.2c0,0.2,0,0.3,0.1,0.4c0.1,0.1,0.2,0.2,0.4,0.2
				c0,0,0,0,0.1,0c0.1,0,0.2,0,0.3-0.1c0.1,0,0.2,0,0.4,0C-4.4,4.8-2.8,5.8-2,7.4l0,0c0.1,0.1,0.2,0.3,0.4,0.3c0.1,0,0.1,0,0.2,0
				c0.1,0,0.2,0,0.3-0.1l0,0c0.8-0.4,1.7-0.6,2.6-0.6c1,0,1.9,0.3,2.7,0.9c0,0.1,0.1,0.2,0.2,0.2c0.1,0,0.1,0.1,0.2,0.1
				c0,0,0.1,0,0.1,0c0,0,0,0,0.1,0c0.1,0,0.2,0,0.2-0.1C5.1,8.1,5.2,8,5.3,7.9l0-0.2c0,0,0-0.1,0-0.1c0-0.1,0-0.2-0.1-0.3
				C4.5,5.8,3,4.9,1.3,4.9c-0.7,0-1.4,0.1-2.1,0.4c-0.9-1.3-2.4-2.1-4-2.2C-5.6,3.1-6.4,3.3-7,3.6z"/>
			<path id="Tracciato_487" class="st1" d="M-19.5,12.7l0,0.3c0,0.3,0.2,0.5,0.5,0.5c0,0,0.1,0,0.1,0c0,0,0.1,0,0.1,0
				c0.1,0,0.2-0.1,0.3-0.2c0.7-0.4,1.5-0.5,2.2-0.5c1.7,0,3.4,0.6,4.7,1.8l0,0c0.1,0.1,0.3,0.2,0.5,0.2h0c0.2,0,0.3-0.1,0.5-0.2l0,0
				c1.3-1.5,3.2-2.4,5.2-2.4c0.5,0,1.1,0.1,1.5,0.3c0.1,0.1,0.2,0.1,0.3,0.2c0.1,0,0.1,0,0.2,0c0,0,0.1,0,0.1,0
				c0.2-0.1,0.3-0.3,0.3-0.5l0-0.2c0-0.1-0.1-0.3-0.2-0.4c-1-0.9-2.4-1.5-3.8-1.5c-1.6,0.1-3.2,0.7-4.4,1.8
				c-1.2-0.8-2.5-1.3-3.9-1.3c-1.6,0-3.1,0.7-4.2,1.9C-19.5,12.4-19.5,12.6-19.5,12.7z"/>
			<path id="Tracciato_488" class="st1" d="M-49.3,17.4c0-3.5,2.9-6.4,6.4-6.4l0,0c0.1,0,0.3,0,0.4,0c0.4-4.8,4.5-8.3,9.3-8
				c4.8,0.4,8.3,4.5,8,9.3c-0.1,1.1-0.4,2.2-0.9,3.2c5.2,1.2,8.5,6.3,7.3,11.5c-1,4.4-4.9,7.6-9.4,7.6c-0.4,0-12.9-0.1-12.9-0.1
				c-3.8,0-6.8-3.1-6.8-6.8c0-1.7,0.7-3.4,1.9-4.7C-48.1,21.9-49.3,19.7-49.3,17.4z"/>
		</g>
	</g>
</g>
</svg>
