<?xml version="1.0" encoding="utf-8"?>
<!-- Generator: Adobe Illustrator 23.1.1, SVG Export Plug-In . SVG Version: 6.00 Build 0)  -->
<svg version="1.1" id="Livello_1" xmlns="http://www.w3.org/2000/svg" xmlns:xlink="http://www.w3.org/1999/xlink" x="0px" y="0px"
	 viewBox="0 0 110 123.9" style="enable-background:new 0 0 110 123.9;" xml:space="preserve">
<style type="text/css">
	.st0{fill:#3F7D3D;}
	.st1{fill:#FFFFFF;}
	.st2{fill:#3D7A3B;}
	.st3{font-family:'BebasNeueBold';}
	.st4{font-size:30px;}
</style>
<g id="Raggruppa_1992" transform="translate(-24.546 -577.372)">
	<g id="Raggruppa_1823" transform="translate(78.546 577.372)">
		<g id="Raggruppa_1821" transform="translate(1.268 14.209)">
			<path id="Rettangolo_90" class="st0" d="M0.4,3.1L0.4,3.1c28.6,0,51.8,23.2,51.8,51.8v0c0,28.6-23.2,51.8-51.8,51.8l0,0
				c-28.6,0-51.8-23.2-51.8-51.8v0C-51.4,26.3-28.2,3.1,0.4,3.1z"/>
		</g>
		<g transform="matrix(1, 0, 0, 1, -54, 0)">
			<g id="Tracciato_549-2" transform="translate(54)">
				<path class="st1" d="M-28.6,47.6c-2.9,0-5.8-0.6-8.5-1.7c-2.6-1.1-4.9-2.7-6.9-4.7c-2-2-3.6-4.3-4.7-6.9
					c-1.1-2.7-1.7-5.5-1.7-8.5s0.6-5.8,1.7-8.5c1.1-2.6,2.7-4.9,4.7-6.9c2-2,4.3-3.6,6.9-4.7c2.7-1.1,5.5-1.7,8.5-1.7
					s5.8,0.6,8.5,1.7c2.6,1.1,4.9,2.7,6.9,4.7c2,2,3.6,4.3,4.7,6.9c1.1,2.7,1.7,5.5,1.7,8.5s-0.6,5.8-1.7,8.5
					c-1.1,2.6-2.7,4.9-4.7,6.9c-2,2-4.3,3.6-6.9,4.7C-22.8,47-25.7,47.6-28.6,47.6z"/>
				<path class="st0" d="M-28.6,5.1c-2.8,0-5.5,0.5-8.1,1.6c-2.5,1-4.7,2.5-6.6,4.5s-3.4,4.1-4.5,6.6c-1.1,2.6-1.6,5.3-1.6,8.1
					s0.5,5.5,1.6,8.1c1,2.5,2.5,4.7,4.5,6.6s4.1,3.4,6.6,4.5c2.6,1.1,5.3,1.6,8.1,1.6s5.5-0.5,8.1-1.6c2.5-1,4.7-2.5,6.6-4.5
					s3.4-4.1,4.5-6.6c1.1-2.6,1.6-5.3,1.6-8.1s-0.5-5.5-1.6-8.1c-1-2.5-2.5-4.7-4.5-6.6s-4.1-3.4-6.6-4.5
					C-23.1,5.6-25.8,5.1-28.6,5.1 M-28.6,3.1c12.6,0,22.8,10.2,22.8,22.8s-10.2,22.8-22.8,22.8s-22.8-10.2-22.8-22.8
					S-41.2,3.1-28.6,3.1z"/>
			</g>
		</g>
	</g>
	<text transform="matrix(1 0 0 1 36.2585 612.477)" class="st2 st3 st4">13</text>
	<path id="Tracciato_450" class="st1" d="M95.6,650.8c-0.4-0.1-2.2-2.6-0.8-4.2c0.2-0.3-0.5-1.1-0.3-1.1c0.7-0.1,1.3,0.4,1.4,1.1
		c0,0.3,0,0.6,0,0.9C95.9,648.7,95.8,649.8,95.6,650.8z M91.2,658.9c-0.2,0-0.3-0.1-0.5-0.2c-0.9-0.4-0.8,0.3-1.2,0.1
		s0.5-1.2-0.8-0.3s-0.9-0.1-1.5-1.6c-0.4-1.4,0.3-2.9,1.7-3.4c1-0.3,1.9-0.6,2.9-0.8c1.9-0.5,2.3-1.6,2.7-0.9
		c0.1,0.1,0.1,0.3,0.2,0.4c0.2,0.3,0.2,0.7,0.2,1C94.1,655.4,92.8,657.3,91.2,658.9L91.2,658.9z M79.9,663.6c-1.5,0-3-0.2-4.5-0.6
		c-0.2-0.2-0.3-0.5-0.2-0.8c0.6-1.2,1.8-1.9,3.1-1.9c2.6-0.3,6,1.7,6.6,1.4s1.6-1.7,3.3-1.7c0.5,0,1,0.1,1.5,0.4
		C86.8,662.5,83.4,663.6,79.9,663.6L79.9,663.6z M77.7,653.2c-0.2,0.4-0.8,3.1-1.2,2.7s0.2-3.1,0.3-3.3
		C77.4,651.4,78.7,651.4,77.7,653.2L77.7,653.2z M84.2,650c-0.5,0.3-1.1,0.2-1.5-0.1c-0.4-0.3,0.3-0.8,0.5-0.9
		C83.7,648.9,84.6,649.7,84.2,650L84.2,650z M91.3,650c-0.2-0.1-0.3-0.2-0.5-0.6c-0.1-0.2,0-0.4,0.2-0.5c0.1-0.1,0.3,0,0.4,0
		c0.4,0.2,0.6,0.5,0.8,0.9C92.2,650.1,91.5,650.1,91.3,650L91.3,650z M92,650.5c0.5,0,1.3,0.7,1,1c-0.5,0.3-1.1,0.2-1.5-0.1
		C91.1,651,91.8,650.5,92,650.5L92,650.5z M74.8,656.9c-0.1,0.8-0.5,1.5-1,2.1c-0.6,0.5-1.4,0.8-2.2,0.8c-0.7-0.1-0.8-2-0.8-3
		c0-0.3-0.5,0.7-0.7-1.4c-0.2-1.3-1,0.1-1.1-0.8s-0.5-0.7-0.9-1.3s-1,0.1-1.6,0.3s-0.4,0.4-1.2,0.1c0,0,0,0-0.1,0
		c-0.8-2-1.3-4.1-1.3-6.2c0-0.5,0-1.1,0.1-1.6c0-0.1,0.1-0.1,0.1-0.1c0.8-1,0.8-1.2,0.8-1.2l0.9-0.3c0.9,0.1,1.8,0.4,2.6,0.7
		c0.9,0.3,2.4,1.1,3.2,0.8c0.6-0.3,1.1-0.6,1-1.1c-0.1-0.6-0.6-0.8-1.2-0.4c-0.2,0.2-0.7-1-1.1-0.9s0.5,1.3,0.1,1.4s-1-1.3-1.1-1.5
		s-0.6-0.8-1.1-0.4c-0.9,0.9-2.5,0.8-2.8,1.1c-0.9,0.7-1.2-0.2-1.2-0.8c0-0.1,0.1-0.3,0.1-0.4c0.5-0.4,1.2-0.4,1.8-0.2
		c0.4,0.3,0.7-0.1,0.9-0.2c0.1-0.2,0.1-0.5,0-0.7c-0.1-0.2,0.2-0.4,0.4-0.4c0.4-0.2,0.8-0.5,1.2-0.7c0.8-0.3,1.6-0.3,2.4,0
		c0.5,0.3,1.2,0.2,1.6-0.3c0.3-0.4,0.7-0.7,1.2-1c0.2-0.1-0.6-0.9-1.2,0s-1,0.9-1.3,0.9s-2.2-0.5-2.4-1s0.6-1,1.3-1.4
		c1-0.2,2-0.4,3-0.4c1-0.2,2.2-0.7,2.8-0.3s-2.6,1.2-1.6,1.7c0.4,0.2,2.1-1,2.7-1.3c1.4-0.7-1.3-0.9-1-2.4c0.4-1.6-3.3-1-5.2-0.9
		c7.5-4.8,17.4-2.6,22.2,4.9c1,1.5,1.7,3.2,2.1,4.9c0,0.2,0,0.5-0.1,0.7c-0.2,0.5-0.8,0.8-1.4,0.6c-0.2-0.1-0.4-0.2-0.5-0.4
		c-0.2-0.2-0.9-0.9-0.8,0.2s1.1,1.2,0.1,1.9c-0.5,0.4-1.1,0.6-1.7,0.7c-0.6,0.5-0.9,1.2-0.8,1.9c0.1,0.6,1.6,2.3,0.5,2.2
		c-1-0.5-1.9-1.2-2.5-2.2c-0.3-0.9-0.7-1.8-1-2.4c-0.2-0.5-0.7-0.8-1.2-0.6c-0.1,0-0.2,0.1-0.3,0.2c-0.6,0.4,0.2,0.8-0.3,1.6
		s-0.7,1.6-1.3,0.9c-1.6-1.8-3.8-0.9-4.2-2.9c-0.2-1.1-1.1-1-1.9-1.6s-1.2-0.9-1.4-0.5c-0.1,0.4,2.5,2.4,2.6,2.9
		c0.3,0.8-0.8,1.5-1.5,1.6s-1.1-0.4-1.8-1.2s-1.1-1.3-1.1-0.7c0.1,1.1,0.6,2,1.5,2.7c0.6,0.4,1.4,0.6,1.2,1.3s0,0.3-0.7,1
		c-0.6,0.4-0.9,1.2-0.8,2c0.1,1-0.2,1.1-0.4,1.9S75.1,655.7,74.8,656.9L74.8,656.9z M66.2,639.2c0,0,0.1-0.1,0.1-0.1
		c0.4-0.3,0.8-0.4,1.3-0.5c0.4-0.1,0.9,0.1,1,0.4s-1,0.7-1.2,0.9c-0.6,0.5-1.4,1.6-1.9,1.7c-0.1,0-0.3,0-0.4,0
		C65.3,640.8,65.7,640,66.2,639.2L66.2,639.2z M67,637.6c0.2-0.3,0.9-1.2,1-1.3c0.2-0.2,0.5-0.3,0.8-0.3c0.2,0,0.6,0.1,0.6,0.3
		c0,0.4-0.1,0.7-0.2,1c-0.5,0.5-1.1,0.7-1.7,0.8C67.1,638,66.9,637.7,67,637.6L67,637.6z M118,647c-15.7-21.1-45.5-25.5-66.5-9.8
		c-3.7,2.8-7,6.1-9.8,9.8c-0.1,0.2-0.2,0.3-0.3,0.4c0.1,0.1,0.2,0.3,0.3,0.4c15.7,21.1,45.5,25.5,66.5,9.8c3.7-2.8,7-6.1,9.8-9.8
		c0.1-0.2,0.2-0.3,0.3-0.4C118.2,647.3,118.1,647.2,118,647L118,647z"/>
</g>
</svg>
