<?xml version="1.0" encoding="utf-8"?>
<!-- Generator: Adobe Illustrator 23.1.1, SVG Export Plug-In . SVG Version: 6.00 Build 0)  -->
<svg version="1.1" id="Livello_1" xmlns="http://www.w3.org/2000/svg" xmlns:xlink="http://www.w3.org/1999/xlink" x="0px" y="0px"
	 viewBox="0 0 110 123.9" style="enable-background:new 0 0 110 123.9;" xml:space="preserve">
<style type="text/css">
	.st0{fill:#F59D11;}
	.st1{fill:#FFFFFF;}
	.st2{font-family:'BebasNeueBold';}
	.st3{font-size:30px;}
</style>
<g>
	<g id="Raggruppa_1823_1_" transform="translate(54)">
		<g id="Raggruppa_1821_1_" transform="translate(1.268 14.209)">
			<path id="Rettangolo_90_1_" class="st0" d="M0.4,3.1L0.4,3.1c28.6,0,51.8,23.2,51.8,51.8v0c0,28.6-23.2,51.8-51.8,51.8l0,0
				c-28.6,0-51.8-23.2-51.8-51.8v0C-51.4,26.3-28.2,3.1,0.4,3.1z"/>
		</g>
		<g transform="matrix(1, 0, 0, 1, -54, 0)">
			<g id="Tracciato_549-2_1_" transform="translate(54)">
				<path class="st1" d="M-28.6,47.6c-2.9,0-5.8-0.6-8.5-1.7c-2.6-1.1-4.9-2.7-6.9-4.7c-2-2-3.6-4.3-4.7-6.9
					c-1.1-2.7-1.7-5.5-1.7-8.5s0.6-5.8,1.7-8.5c1.1-2.6,2.7-4.9,4.7-6.9c2-2,4.3-3.6,6.9-4.7c2.7-1.1,5.5-1.7,8.5-1.7
					s5.8,0.6,8.5,1.7c2.6,1.1,4.9,2.7,6.9,4.7c2,2,3.6,4.3,4.7,6.9c1.1,2.7,1.7,5.5,1.7,8.5s-0.6,5.8-1.7,8.5
					c-1.1,2.6-2.7,4.9-4.7,6.9c-2,2-4.3,3.6-6.9,4.7C-22.8,47-25.7,47.6-28.6,47.6z"/>
				<path class="st0" d="M-28.6,5.1c-2.8,0-5.5,0.5-8.1,1.6c-2.5,1-4.7,2.5-6.6,4.5s-3.4,4.1-4.5,6.6c-1.1,2.6-1.6,5.3-1.6,8.1
					s0.5,5.5,1.6,8.1c1,2.5,2.5,4.7,4.5,6.6s4.1,3.4,6.6,4.5c2.6,1.1,5.3,1.6,8.1,1.6s5.5-0.5,8.1-1.6c2.5-1,4.7-2.5,6.6-4.5
					s3.4-4.1,4.5-6.6c1.1-2.6,1.6-5.3,1.6-8.1s-0.5-5.5-1.6-8.1c-1-2.5-2.5-4.7-4.5-6.6s-4.1-3.4-6.6-4.5
					C-23.1,5.6-25.8,5.1-28.6,5.1 M-28.6,3.1c12.6,0,22.8,10.2,22.8,22.8s-10.2,22.8-22.8,22.8s-22.8-10.2-22.8-22.8
					S-41.2,3.1-28.6,3.1z"/>
			</g>
		</g>
	</g>
	<text transform="matrix(1 0 0 1 11.7125 35.104)" class="st0 st2 st3">11</text>
	<g id="Raggruppa_1842" transform="translate(75.483 40.936)">
		<path id="Tracciato_122" class="st1" d="M-51,38.3h14.4c0.2,0,0.4-0.2,0.4-0.4c0-0.1,0-0.2-0.1-0.2l0,0l-7.2-9.3l-0.1-0.1
			c-0.1-0.1-0.2-0.1-0.3-0.1c-0.1,0-0.2,0-0.2,0.1l0,0.1l-0.1,0.1l-7,9.2l-0.1,0.1c0,0.1-0.1,0.1-0.1,0.2
			C-51.3,38.1-51.2,38.3-51,38.3z"/>
		<path id="Tracciato_123" class="st1" d="M-36.6,39.6h-14.5c-0.2,0-0.4,0.2-0.4,0.4v11.3c0,0.2,0.2,0.4,0.4,0.4h4.7v-7.1
			c0-0.2,0.2-0.4,0.4-0.4c0,0,0,0,0,0h4.3c0.2,0,0.4,0.2,0.4,0.4c0,0,0,0,0,0v7.1h4.8c0.2,0,0.4-0.2,0.4-0.4V39.9
			C-36.2,39.7-36.4,39.6-36.6,39.6L-36.6,39.6z"/>
		<path id="Tracciato_124" class="st1" d="M12.1,41.2c0,0.2-0.2,0.3-0.3,0.3c0,0,0,0,0,0H7.4c-0.2,0-0.3-0.1-0.4-0.3c0,0,0,0,0,0
			v-2.6c0-0.2,0.2-0.3,0.4-0.3c0,0,0,0,0,0h4.3c0.2,0,0.3,0.1,0.4,0.3V41.2z M12.1,46c0,0.2-0.2,0.3-0.3,0.3c0,0,0,0,0,0H7.4
			c-0.2,0-0.3-0.1-0.4-0.3c0,0,0,0,0,0v-2.6c0-0.2,0.2-0.3,0.3-0.3c0,0,0,0,0,0h4.3c0.2,0,0.3,0.1,0.4,0.3c0,0,0,0,0,0V46z
			 M5.5,41.2c0,0.2-0.2,0.3-0.3,0.3h0H0.9c-0.2,0-0.3-0.1-0.4-0.3c0,0,0,0,0,0v-2.6c0-0.2,0.2-0.3,0.4-0.3c0,0,0,0,0,0h4.3
			c0.2,0,0.3,0.1,0.4,0.3V41.2z M5.5,46c0,0.2-0.2,0.3-0.3,0.3h0H0.9c-0.2,0-0.3-0.1-0.4-0.3c0,0,0,0,0,0v-2.6
			c0-0.2,0.2-0.3,0.3-0.3c0,0,0,0,0,0h4.3c0.2,0,0.3,0.1,0.4,0.3c0,0,0,0,0,0V46z M13.4,36.6H-0.9c-0.2,0-0.3,0.1-0.3,0.3
			c0,0,0,0,0,0v14.4c0,0.2,0.2,0.3,0.3,0.3h14.3c0.2,0,0.3-0.1,0.4-0.3c0,0,0,0,0,0V36.9C13.7,36.8,13.6,36.6,13.4,36.6
			C13.4,36.6,13.4,36.6,13.4,36.6L13.4,36.6z"/>
		<path id="Tracciato_125" class="st1" d="M-21.9,13.3c0,0.1-0.1,0.2-0.2,0.2h-3.2c-0.1,0-0.2-0.1-0.2-0.2c0,0,0,0,0,0V9.8
			c0-0.1,0.1-0.2,0.2-0.2c0,0,0,0,0,0h3.2c0.1,0,0.2,0.1,0.2,0.2c0,0,0,0,0,0V13.3z M-21.9,21.5c0,0.1-0.1,0.2-0.2,0.2l0,0h-3.2
			c-0.1,0-0.2-0.1-0.2-0.2c0,0,0,0,0,0V18c0-0.1,0.1-0.2,0.2-0.2c0,0,0,0,0,0h3.2c0.1,0,0.2,0.1,0.2,0.2c0,0,0,0,0,0V21.5z
			 M-21.9,29.7c0,0.1-0.1,0.2-0.2,0.2l0,0h-3.2c-0.1,0-0.2-0.1-0.2-0.2c0,0,0,0,0,0v-3.6c0-0.1,0.1-0.2,0.2-0.2c0,0,0,0,0,0h3.2
			c0.1,0,0.2,0.1,0.2,0.2l0,0V29.7z M-21.9,37.9c0,0.1-0.1,0.2-0.2,0.2c0,0,0,0,0,0h-3.2c-0.1,0-0.2-0.1-0.2-0.2c0,0,0,0,0,0v-3.6
			c0-0.1,0.1-0.2,0.2-0.2c0,0,0,0,0,0h3.2c0.1,0,0.2,0.1,0.2,0.2c0,0,0,0,0,0V37.9z M-21.9,46.2c0,0.1-0.1,0.2-0.2,0.2l0,0h-3.2
			c-0.1,0-0.2-0.1-0.2-0.2c0,0,0,0,0,0v-3.6c0-0.1,0.1-0.2,0.2-0.2c0,0,0,0,0,0h3.2c0.1,0,0.2,0.1,0.2,0.2c0,0,0,0,0,0V46.2z
			 M-28.2,13.3c0,0.1-0.1,0.2-0.2,0.2h-3.2c-0.1,0-0.2-0.1-0.2-0.2V9.8c0-0.1,0.1-0.2,0.2-0.2c0,0,0,0,0,0h3.2
			c0.1,0,0.2,0.1,0.2,0.2l0,0V13.3z M-28.2,21.5c0,0.1-0.1,0.2-0.2,0.2h-3.2c-0.1,0-0.2-0.1-0.2-0.2l0,0V18c0-0.1,0.1-0.2,0.2-0.2
			c0,0,0,0,0,0h3.2c0.1,0,0.2,0.1,0.2,0.2v0V21.5z M-28.2,29.7c0,0.1-0.1,0.2-0.2,0.2h-3.2c-0.1,0-0.2-0.1-0.2-0.2l0,0v-3.6
			c0-0.1,0.1-0.2,0.2-0.2l0,0h3.2c0.1,0,0.2,0.1,0.2,0.2l0,0V29.7z M-28.2,37.9c0,0.1-0.1,0.2-0.2,0.2c0,0,0,0,0,0h-3.2
			c-0.1,0-0.2-0.1-0.2-0.2c0,0,0,0,0,0v-3.6c0-0.1,0.1-0.2,0.2-0.2c0,0,0,0,0,0h3.2c0.1,0,0.2,0.1,0.2,0.2c0,0,0,0,0,0V37.9z
			 M-28.2,46.1c0,0.1-0.1,0.2-0.2,0.2h-3.2c-0.1,0-0.2-0.1-0.2-0.2l0,0v-3.6c0-0.1,0.1-0.2,0.2-0.2c0,0,0,0,0,0h3.2
			c0.1,0,0.2,0.1,0.2,0.2V46.1z M-19.9,3.1h-14c-0.2,0-0.3,0.2-0.3,0.3v47.9c0,0.2,0.2,0.3,0.3,0.3h14c0.2,0,0.3-0.2,0.3-0.3V3.4
			C-19.6,3.2-19.7,3.1-19.9,3.1L-19.9,3.1z"/>
		<path id="Tracciato_126" class="st1" d="M13.7,35.2c0,0.2-0.1,0.3-0.3,0.3c0,0,0,0,0,0H-1c-0.2,0-0.3-0.1-0.3-0.3l0,0v-2.9
			c0-0.2,0.1-0.3,0.3-0.3h14.4c0.2,0,0.3,0.1,0.3,0.3c0,0,0,0,0,0V35.2z"/>
		<path id="Tracciato_127" class="st1" d="M-4.6,26.7c0,0.2-0.2,0.3-0.3,0.3l0,0h-4.2c-0.2,0-0.3-0.2-0.3-0.3c0,0,0,0,0,0v-2.6
			c0-0.2,0.2-0.3,0.3-0.3c0,0,0,0,0,0h4.2c0.2,0,0.3,0.2,0.3,0.3V26.7z M-4.6,31.6c0,0.2-0.2,0.3-0.3,0.3h-4.2
			c-0.2,0-0.3-0.2-0.3-0.3v-2.6c0-0.2,0.2-0.3,0.3-0.3c0,0,0,0,0,0h4.2c0.2,0,0.3,0.2,0.3,0.3V31.6z M-4.6,36.4
			c0,0.2-0.2,0.3-0.3,0.3h-4.2c-0.2,0-0.3-0.2-0.3-0.3v-2.6c0-0.2,0.2-0.3,0.3-0.3c0,0,0,0,0,0h4.2c0.2,0,0.3,0.2,0.3,0.3V36.4z
			 M-4.6,41.2c0,0.2-0.2,0.3-0.3,0.3l0,0h-4.2c-0.2,0-0.3-0.2-0.3-0.3c0,0,0,0,0,0v-2.6c0-0.2,0.2-0.3,0.3-0.3c0,0,0,0,0,0h4.2
			c0.2,0,0.3,0.2,0.3,0.3c0,0,0,0,0,0V41.2z M-4.6,46c0,0.2-0.2,0.3-0.3,0.3h-4.2c-0.2,0-0.3-0.2-0.3-0.3c0,0,0,0,0,0v-2.6
			c0-0.2,0.2-0.3,0.3-0.3h4.2c0.2,0,0.3,0.2,0.3,0.3V46z M-10.9,25.7v5.9c0,0.2-0.2,0.3-0.3,0.3h-4.2c-0.2,0-0.3-0.2-0.3-0.3
			c0,0,0,0,0,0v-0.7c0,0,0-0.1,0-0.1c0,0,0,0,0,0c0,0,0,0,0,0c0,0,0,0,0-0.1c0.5-0.8,2.9-3.7,4-5l0.1-0.1c0.1-0.1,0.2-0.1,0.3-0.1
			C-11.1,25.3-11,25.5-10.9,25.7L-10.9,25.7z M-10.9,36.4c0,0.2-0.2,0.3-0.3,0.3h-4.2c-0.2,0-0.3-0.2-0.3-0.3v-2.6
			c0-0.2,0.2-0.3,0.3-0.3c0,0,0,0,0,0h4.2c0.2,0,0.3,0.2,0.3,0.3c0,0,0,0,0,0L-10.9,36.4z M-10.9,41.2c0,0.2-0.2,0.3-0.3,0.3
			c0,0,0,0,0,0h-4.2c-0.2,0-0.3-0.2-0.3-0.3c0,0,0,0,0,0v-2.6c0-0.2,0.2-0.3,0.3-0.3c0,0,0,0,0,0h4.2c0.2,0,0.3,0.2,0.3,0.3
			c0,0,0,0,0,0L-10.9,41.2z M-10.9,46c0,0.2-0.2,0.3-0.3,0.3c0,0,0,0,0,0h-4.2c-0.2,0-0.3-0.2-0.3-0.3c0,0,0,0,0,0v-2.6
			c0-0.2,0.2-0.3,0.3-0.3h4.2c0.2,0,0.3,0.2,0.3,0.3L-10.9,46z M-8.8,21.6l0.1-0.1c0.9-1.2,2.5-3.2,3.3-4.1l0.1-0.1
			c0.1-0.2,0.4-0.2,0.5-0.1c0.1,0.1,0.1,0.1,0.1,0.2v4.4c0,0.2-0.2,0.4-0.4,0.4c0,0,0,0,0,0s0,0,0,0h-3.4c0,0,0,0,0,0s0,0,0,0
			c-0.2,0-0.4-0.2-0.4-0.4C-8.8,21.7-8.8,21.7-8.8,21.6L-8.8,21.6z M-3,12.1c0-0.2-0.2-0.3-0.4-0.3c0,0-0.1,0-0.1,0.1l0,0l-0.1,0.1
			l-13.8,17.5l-0.1,0.1c-0.1,0.1-0.1,0.2-0.1,0.3v21.5c0,0.2,0.2,0.3,0.3,0.3h14c0.2,0,0.3-0.2,0.3-0.3c0,0,0,0,0,0V12.3
			C-2.9,12.2-3,12.2-3,12.1L-3,12.1z"/>
	</g>
</g>
</svg>
